<?xml version="1.0" encoding="UTF-8"?>
<svg id="Layer_1" xmlns="http://www.w3.org/2000/svg" version="1.1" viewBox="0 0 2053.2 1100.9">
  <!-- Generator: Adobe Illustrator 29.4.0, SVG Export Plug-In . SVG Version: 2.1.0 Build 152)  -->
  <defs>
    <style>
      .st0, .st1 {
        fill: #fff;
      }

      .st2 {
        fill-rule: evenodd;
      }

      .st1 {
        font-family: ArialMT, Arial;
        font-size: 67.59px;
        isolation: isolate;
      }
    </style>
  </defs>
  <g id="stage">
    <g id="layer1_1">
      <path id="CompoundPath_1" class="st2" d="M787.7,329.8v133.6c0,124.9.1,133,1.8,136.5,1.4,3,1.7,5.9,1.5,15.7-.1,6.6-.9,15.6-1.6,19.9-.8,4.6-1.4,16.2-1.5,27.5l-.2,19.6,261.5.2,261.6.2v-94h5c2.8,0,5-.5,5-1,0-.6-6.8-1-18.2-1.1-20.5-.1-28.3-1.1-18.2-2.2,12-1.3,34.4-2.9,50.5-3.5,13.6-.6,16.5-.9,16.5-2.2,0-.8-1.3-1.8-3-2.1-4.1-.9-32-1-49.2-.2-11.9.5-14.1.9-13.6,2.1.5,1.2.2,1.3-1.8.2-1.3-.7-4.5-1.3-7.1-1.4-2.6-.1-5.1-.6-5.6-1-.4-.5,0-.6,1-.2,1,.3,1.8.2,1.8-.3s1.6-.8,3.5-.6,3.6-.2,3.8-.7c.6-1.8,9.8-2.6,37.2-3.2,14.8-.3,28.4-.8,30.2-1.1,3-.5,5.1-2.8,3.5-3.8-.4-.3-17.5-.6-38-.7-20.5-.1-37.2-.6-37.2-1s.3-.9.8-1c5.1-.9,19.6-1.6,51-2.5,23.9-.7,24.3-.7,24-2.8s-.7-2.1-29.8-2.3c-37.8-.3-44.7-.5-46.1-1.3-1.8-1.1,5.4-2.1,19-2.5,49.2-1.5,53.6-1.7,55.4-3s1.8-1.4-.4-2.2c-1.3-.5-17.8-.7-36.6-.6-22,.2-34.2-.1-34.2-.8,0-.5-.9-1-1.9-1-2.8,0-3.5-1.8-.8-1.9,1.2,0,6.5-.6,11.7-1.1,5.2-.6,18-.9,28.5-.6l19,.4-12.8-1-12.8-1,.3-46.6.3-46.6,8-.5c8.8-.6,7.2-2-2.3-2-3.8,0-5.9-.6-7.3-1.9q-2-1.9,1.2-2.5c1.7-.3,17.7-.6,35.5-.6,22.2,0,32.5-.3,33-1.1,1.9-3.1-1.7-3.4-47.5-3.9-40.6-.4-48.6-.9-47-2.4.9-.9,51-2.6,74.3-2.6s24.7-.1,24.7-1.9c0-1.4-1-2-3.8-2.5-2.1-.3-24.4-.6-49.6-.6-34.4,0-45.7-.3-45.4-1.2.5-1.6.1-1.5,30-2.3,14.5-.4,28.8-.8,31.8-1s12.4-.3,20.8-.4c14.6-.1,15.2-.2,15.2-2.1,0-2-.7-2-48.2-2.1-26.5-.1-49.4-.4-50.8-.8l-2.5-.7,2.5-.7c1.4-.4,23.4-1.2,49-1.8,25.6-.6,47.5-1.3,48.8-1.5,1.4-.3,2.2-1.2,2.2-2.5,0-2-.2-2-42.8-1.3-43,.7-63.9.1-57.8-1.8,2.7-.8,19.5-1.6,78.5-3.6,19.3-.7,21.5-.9,21.8-2.5s-2.3-1.8-43.5-1.8c-40.9-.1-55-.7-51.3-2.2.8-.3,21.9-1.1,46.9-1.7,43.9-1,49.2-1.5,47.5-4.2-.3-.5-13.5-.9-30.7-.9-58.5.1-64.3,0-62.4-1.1,2.2-1.3,19.6-2.5,39.3-2.8,19-.2,37.4-1.7,38.7-3.1.7-.7-.3-1-3.4-1.1-2.4,0-9.2-.2-15-.4s-19.9-.5-31.5-.6c-19.3-.2-20.5-.3-14.5-1.4l6.5-1.1.3-23.1.3-23.1-261.6-.2c-143.9,0-261.7.3-261.7.8M1282.7,423.1c0,.6-.5,1-1,1-.6,0-1-.4-1-1,0-.5.4-1,1-1s1,.4,1,1M1327.7,446.1c0,.6,1.1.8,2.8.4,3.9-.9,4.1-1.4.4-1.4-1.7,0-3.2.4-3.2,1M1282.6,575.8c.7.3,1.6.3,1.9-.1.3-.3-.3-.6-1.3-.5-1.2,0-1.4.2-.6.6M1259.7,578.1c0,.5-.2,1-.4,1s-.7-.5-1.1-1c-.3-.5-.1-1,.4-1,.7,0,1.1.4,1.1,1M805.4,702.1c-1.5.2-2.8.7-2.8,1.1s9.7.7,21.5.7,21.5.3,21.5.8.6.5,1.2,0c.7-.5,3.7-.8,6.8-.6,15.9.8,35,.8,35,0,0-.5.5-.5,1.2,0,.7.6,9,.8,19.8.6,22-.4,25.6-.6,26.6-1.6.4-.4-9.8-.8-22.7-.8s-41.9-.1-64.4-.3-42.2-.1-43.7.1M944.6,703.7c-.6,1.5-1,3.1-1,3.6,0,.9-6.6,1.1-31.5,1.1-5,0-11.7-.1-15-.2-3.3-.1-6.2-.1-6.5,0-1.7.5-44.1.3-44.6-.2-.3-.3-1.9-.2-3.4.2-1.6.4-3.1.6-3.4.2-1-1-7.6-1.1-7.6-.1,0,.5-.6.6-1.2.2-1.9-1.2-13.1-1.2-14,.1-.5.8-.7.8-.8,0,0-.7-4.2-1-13.3-.7-7.3.2-13.4.6-13.6.8-.2.2-.1,1.1.3,2,.5,1.4.9,1.4,2.2.4,1.1-.9,1.8-1,2.2-.2.4.7,4.8,1,11.9.9,6.2-.1,11.2.2,11.2.7s.6.4,1.3-.2c1-.8,1.6-.8,2.5.1.7.7,1.2.7,1.2.2,0-1.2,5.9-1.2,7.8-.1.7.4,1.2.4,1.2,0,0-1,13.1-1,14.8.1.7.4,1.2.2,1.2-.4,0-.9.4-.9,1.5.1,1.2,1,1.5,1,1.5-.1,0-.8.3-1,.8-.4.9,1.3,9.2,1.6,9.2.3,0-.5.5-.6,1.2-.2,1.8,1.1,9.8,1.3,9.8.2,0-.5.6-.6,1.2-.2,1.9,1.2,8.1,1.1,9-.1.5-.7.7-.7.8,0,0,1.2,10.9,1.3,12.8.1.7-.4,1.2-.3,1.2.2,0,1.1,6.1.8,8-.4.8-.5,1.1-.4.7.2-.4.6,1,.9,3.6.8,2.3-.1,4.9.3,5.6.9,1.1.8,1.3.8.6-.4-.6-1.1-.4-1.3.8-.8.9.4,1.7.2,1.7-.5,0-.6.9-.3,2,.7q2,1.8,1.3,0c-.7-1.7-.6-1.7,2.2.1,1.6,1,2.6,1.4,2.2.7-.4-.7.1-1.4,1.4-1.7,1.4-.4,1.9-.1,1.6.7-.3.7.1,1.3.8,1.3s1.1-.5.9-1.1c-.3-.7,2.1-1.1,7-1.1,6.4,0,7.5.3,7.9,1.8.6,2.2-2.2,3.5-3.5,1.6-.7-1.1-.9-1.1-.9,0,0,1-1.2,1.3-4.5,1-2.5-.2-4.5,0-4.5.4s-1.1.3-2.4-.2c-1.3-.5-2.7-.6-3.1-.2-1,1-3.9.8-4.8-.3-.5-.6-1.1-.5-1.6.4-.5.8-1.1,1-1.5.3-.3-.6-1.5-.8-2.6-.5s-2.7,0-3.5-.7c-1.2-1-1.5-1-1.5,0,0,.7-.6,1-1.4.7-.8-.3-1.9,0-2.5.6-.7.7-1.1.7-1.1.1s-2.8-1-6.8-.9c-3.7.1-7.3-.3-8-.8-.7-.6-1.2-.6-1.2,0,0,.5-5.7.8-13.2.6-7.3-.2-15.3-.3-17.8-.3-14.7.3-17.9,0-19.1-1.8-.9-1.4-.9-1.3-.5.5.5,2,.3,2.1-4.2,1.5-6.1-.8-14.5-.7-16,.2-.6.4-1.4.1-1.7-.5-.4-.9-.8-.9-1.3-.2-.5.6-5,1.2-10.8,1.3-12.2.2-13.8.4-14.7,1.6-1.6,2.2,1.1,2.7,12.7,2.4,6.8-.2,12.6,0,13.1.4.4.4.1.8-.7.8-1.2,0-1.2.2.1,1,1.1.7,1.7.4,2.3-1.1.6-1.8,1-1.9,2.3-.8,1.3,1.1,1.7,1.1,2.4,0,.6-1,1.2-.7,2.5,1.1,1,1.3,1.5,1.6,1.2.7-.4-1.2.2-1.8,2.4-2.1,3.6-.5,4.2.1,2.3,2.7-1,1.4-1.4,1.5-1.4.5,0-1.1-.2-1.1-.8-.2-.4.7-2.4,1.1-4.7.9-2.2-.2-5.4,0-7.2.4s-3.2.4-3.2.1c0-.6-13-.4-18,.2-1.4.2-3.3.4-4.2.5-1,.1-1.8.9-1.8,1.7,0,1.1.6,1.5,2,1.1,1.1-.3,2-.2,2,.3,0,.4,3.9.7,8.8.6,4.8-.1,9.5.2,10.5.7,1.2.6,1.8.5,1.8-.5,0-.7.9-1.4,2-1.5,2.2-.2,2.7,1.3.8,2-.7.2-.9.8-.4,1.3.4.5,1.2.2,1.7-.5.7-1.1,1.2-1.2,2.3-.2,1.2,1,1.6,1,1.9-.1.3-1,.8-1,2.2.2,1.7,1.4,1.8,1.3,1.1-.8-.7-2.2.7-3.2,1.8-1.4.7,1.1,6.6.9,8.5-.3.8-.5,1.7-.3,2.2.5.6,1,1.1,1.1,2.3.1s1.6-1,2,.1c.4,1,.8,1,1.6-.2,1-1.3,1.2-1.3,2,0,.8,1.2,1.2,1.2,2.2.2,1.5-1.5,3.2-1.7,2.3-.2-.3.5,0,1,.9,1,.8,0,1.7-.6,2-1.2.4-.9.8-.9,1.3-.2s5.1,1,12.2,1c6.2,0,11.5.2,11.7.5s1.7.5,3.4.4c2.2-.1,3,.3,3.1,1.4,0,1.3.2,1.3.9.2.5-.9,1.7-1.1,3-.7,1.4.4,2.1.2,2.1-.5s1-1,2.5-.7c1.4.3,2.5.2,2.5-.1,0-.9,9.1-.5,11.4.4,1.1.5,2.1.3,2.6-.5.6-.9,1.3-1,2.8-.2,1.1.6,2.3.8,2.7.4,1-1,11-1.1,12.3,0,.7.5,1.8.6,2.4.2,1.7-1.1,7.8-1.2,7.2-.1-.3.5.1.8.8.7,3.4-.5,5.8.2,5.8,1.5,0,1.2-1.4,1.4-8.2.9-4.5-.3-9.1-.6-10.2-.5-1.1,0-2.5-.7-3.3-1.6-1.2-1.6-1.3-1.5-.7.2.5,1.5.3,1.8-1,1.3-.9-.4-1.7-.3-1.7.1,0,1-20.2.8-21.8-.1-.7-.4-1.2-.3-1.2.4,0,.9-.4.9-1.5-.1-1-.8-1.5-.9-1.5-.2,0,1.4-8,1.2-9.9-.2-1.1-.9-1.3-.7-.8.7.5,1.5.4,1.6-1.1.8-1-.5-3.2-.8-5-.6-2.5.3-3.2,0-3.2-1.3,0-1.2-.3-1.3-.8-.5-.4.7-1.7,1.2-2.7,1.1-1.1,0-2.8.3-3.9.7-1.5.6-1.8.5-1.3-.9.8-2.2-.2-2.1-1.9.1q-1.3,1.7-1.4,0c0-2.1-2-2.4-2-.2,0,.8-.5,1.5-1.1,1.5s-.8-.5-.4-1c.3-.5.1-1-.5-1s-1.4.7-1.7,1.5c-.4,1.1-.9,1.2-1.8.5-.7-.6-2.8-.8-4.7-.6s-4.1,0-4.9-.4c-.8-.5-1.9-.4-2.7.2-.9.8-1.3.7-1.3-.2,0-.8-.4-.9-1.2-.4-1.9,1.3-5.3,1-5-.5.2-.8-.2-1-1-.5-2,1.2-3.6,1.4-13.9,1.7-8.3.2-9.6,0-9.2-1.3.4-1.3.2-1.2-.9.1-1.1,1.3-2.9,1.6-8.1,1.5-3.7-.1-6.7.1-6.7.5s-.7.5-1.5.2c-1.8-.7-4.7,1.4-3.9,2.8.3.5,1.6.8,2.7.7,1.2-.2,2.7.1,3.4.5s1.2.4,1.2-.1c0-1,3.6-1,4.6.1,1.3,1.3,2.3.7,1.7-1.1-.4-1.4-.3-1.4.4-.4.5.8,1.7,1.1,2.6.8.9-.3,1.8-.1,2.2.4.4.7,1,.7,1.8,0,.7-.6,1.8-.6,2.6-.1s1.8.6,2.3.4,1.6.1,2.5.8,1.4.8,1,.2c-.4-.7.8-1.1,3.3-1.2,2.6-.1,4,.3,4,1.1,0,.9.2,1,.8.1.5-.8,4.6-1.1,14.2-.9,7.4.1,14-.2,14.7-.7.8-.6,1.7-.5,2.6.2.8.6,2.2.8,3.2.5,1.3-.5,1.6-.3,1,.6-.6,1-.3,1,1.1.3,2.1-1.1,15.5-.9,17.4.3.8.5,1,.4.6-.4-.8-1.4.3-1.5,2.3-.2.8.5,2.4.5,3.8,0,1.4-.5,2.3-.5,2.3.1s1,.6,2.6,0c1.7-.7,3.2-.6,4.6.1,1.1.6,1.8.7,1.5.2s2.4-.9,5.9-.9,6.4.4,6.4.8.6.5,1.2,0c1.8-1.1,12.6-1.3,13.3-.2.3.5,1.4.4,2.6-.2,1.7-.9,1.9-.8,1.2.2-.6,1.1-.5,1.1.6.2.8-.6,4.5-1.2,8.2-1.3,6.2-.1,6.8,0,6.8,1.9,0,1.2-.4,1.8-.9,1.5s-1.2-.1-1.5.4c-.4.6-1.5.6-3.1,0-1.4-.5-2.5-.7-2.5-.5s-1.1,0-2.5-.5-2.5-.6-2.5-.2-2.7.7-6,.6c-3.3-.1-6,.3-6,.8s-.5.6-1.2.1c-1.7-1-6.8-1.2-7.4-.2-.3.4-1.5.4-2.7,0s-3.3-.6-4.7-.5c-1.4.2-8.5.3-15.8.3-10.2,0-13.1.3-12.6,1.2.6.9.4,1-.7.1-.8-.6-4.1-1.2-7.4-1.3-3.3-.1-7.5-.3-9.2-.6-2-.3-3.2,0-3.2.7,0,.8-.3.8-1.1.1-1.3-1.3-4.9-.5-4.9,1.1,0,.6-.5.5-1-.4-.8-1.2-1.1-1.3-1.9-.1-.7,1-1.1,1.1-1.6.2-.4-.6-1.4-.9-2.1-.6-.8.3-1.4.1-1.4-.5s-.6-.7-1.2-.3c-.7.4-2.5.6-4,.5-1.8-.2-2.8.2-2.8,1,0,1-.2,1-.9-.1-.5-.8-1.2-1.2-1.6-.8-.3.3-1.9.3-3.6-.2-1.6-.5-2.9-.5-2.9-.2,0,.4-4.8.5-10.6.2s-10.8-.2-11.1.3c-.3.4-1.4.3-2.5-.3-1.3-.7-2.4-.7-3.2-.1-.7.5-2.4.8-3.9.6s-2.8.1-2.9.6c-.5,3.2-.2,3.4,5.7,3.5,3.3.1,6.6.4,7.2.8.7.4,1.2.4,1.2-.1s4.6-.7,10.2-.6c38.7.8,68.8.8,68.8,0,0-.6.5-.6,1.2,0,.7.5,4.2.8,7.8.7s9.2-.3,12.5-.2c3.3,0,7.6-.1,9.5-.2,4.4-.2,13.3-.2,14,.1.3.1.9.1,1.3,0,1.1-.2,10.4-.3,13.4-.2,1.4.1,2.2.7,2.2,1.8,0,1.6-2.9,1.7-46.2,1.7-25.5,0-46.8.4-47.5.9s-1.2.5-1.2,0c0-1-22.8-.9-23.7,0-.3.3-1.1.2-1.7-.2-2.3-1.8-4.5-2.1-3.9-.6.3.8.1,1.4-.6,1.4s-1.1-.4-1.1-.8-.9-.9-2-.9c-1.1-.1-2,.3-2,1,0,.6-.3.8-.7.4s-1.3-.2-2,.5c-1,.8-1.3.8-1.3-.1,0-.7-.6-1-1.2-.8-.7.2-1.8-.3-2.5-1.2-1-1.2-1.2-1.3-1-.2s-1.1,1.5-5.7,1.5c-3.3.1-6.5.4-7.2.8-.6.4-1.4.2-1.6-.5-.2-.7-.7-1-1.1-.6-1.3,1.2.7,4.1,2.5,3.6,1-.3,1.6-.1,1.4.3-.3.4,1,.8,2.7.8,1.8,0,4.9.2,7,.5s3.8,0,3.8-.5c0-.6.5-.6,1.2,0,1.2.9,10.1.9,14.2,0,1.1-.2,2.5,0,3.2.5.7.6,1.4.5,1.8-.1,1-1.6,2.5-1.2,2.5.7,0,1.1.3,1.3.8.6.9-1.4,6.3-2.1,8-1,.7.4,1.2.3,1.2-.2,0-1,6.3-.6,8.1.5.5.3.9.2.9-.3s5.4-.8,12-.8,12,.4,12,.9.7.3,1.5-.4c1.2-1,1.5-1,1.5,0s.3,1,1.5,0c1.1-.9,1.5-.9,1.5-.1,0,.6.5.9,1.1.5,1.3-.8,23.9-1.2,23.9-.4,0,.3,2.1.4,4.8.3,8.9-.4,16.7-.5,17.8-.3s9.9.1,11.2-.1c3.1-.5,6.3.3,6.3,1.6,0,1.2-1.7,1.5-9.2,1.6-5.1.1-10.6,0-12.2-.1-6.9-.5-11.5-.5-11.5,0,0,.3-.9.5-2,.5s-2-.4-2-.9-.6-.4-1.3.2c-.7.6-1.6.9-1.9.6s-3.7-.7-7.7-.9c-5.2-.3-6.9,0-6.4.8.4.6-.1.5-1-.2-1.3-1-1.7-1.1-1.7-.1s-.3,1-1.4.1c-1.1-.9-1.6-.9-2.1,0-.5.8-.9.8-1.6-.2-.7-1.1-.9-1.1-.9,0s-.3,1.1-1.4.2c-.8-.6-1.7-.8-2-.3-.6,1-3.6,1-5.3-.1-.6-.4-1.4-.3-1.7.2-.6,1-5.1.9-6.2-.2-.3-.3-1.7-.2-3,.3-1.6.6-2.4.6-2.4-.2s-.4-.7-1.4.1c-1.1.9-1.6.9-2.1,0-.5-.8-1-.8-1.7.2-.8,1.1-1.1,1.1-1.5.1-.4-.9-.9-1-1.8-.2-.9.8-1.5.8-2,0-.4-.7-1.2-.7-2.5,0-1.2.6-2.1.7-2.5,0-.4-.6-1.5-.6-3.1,0s-2.5.6-2.5-.1c0-.6-.6-.7-1.2-.3-1.9,1.2-19.1,1.1-20-.1-.5-.7-1.1-.6-1.6.3-.5.7-1.1,1-1.4.5-.4-.7-6.2-1-6.2-.3,0,.1-1,.3-2.2.4-1.2.1-2.2-.2-2.2-.7s-1-.6-2.2-.3c-3.8,1.2-8.2,1.3-9.4.4-.7-.5-1.4-.6-1.7,0-.3.5.6,1.5,1.9,2.2,1.4.7,2.3,1.9,2,2.7-.3.7.1,1.3.9,1.3s1.6-.5,1.8-1.2c.6-1.7,16.8-1.5,17.8.2.6,1,1.1,1,2.4-.1,1.3-1.1,1.8-1.1,2.5-.1.5.8,1,.9,1.4.3.7-1.2,10.6-1.3,10.6-.1,0,.4.3,1.5.6,2.3.4,1,.1,1.6-1,1.6-.9,0-1.6-.5-1.6-1.1s-.5-.8-1-.4c-.6.3-.7,1.1-.4,1.7.4.6-.2.6-1.5-.1-1.2-.6-2.1-1.6-2.1-2.1s-.5-1-1.2-1c-.9,0-.9.3,0,1.2,1.8,1.8,1.5,2.4-1.4,2.3-1.4-.1-3-.8-3.5-1.5-.8-1.2-.9-1.2-.9.1,0,1.2-1.6,1.5-8.8,1.4-4.8,0-9.5.3-10.5.8s-1.8.5-1.8,0-1.6-.6-3.5-.4c-4.1.5-4.2,2.3,0,2.8,1.5.2,3.7,1.1,4.7,2,1.1,1,1.9,1.2,1.9.6s-.5-1.2-1.1-1.2-.8-.4-.4-1c.4-.6,1.5-.2,2.7,1,1.6,1.4,2.5,1.7,3.4.9.7-.6,1.8-.8,2.3-.4.6.4,1,.1,1-.5s.5-.8,1.2-.4c1.7,1.1,11.8,1.3,11.2.2-.3-.5-.1-.9.4-.9s1.2.6,1.6,1.2c.5,1,.7,1,1.2-.1.5-1,.9-.9,2,.5.8,1,1.4,1.4,1.4.8s3.6-1,8.8-.9c4.8,0,9.5-.3,10.4-.8,1-.5,2-.4,2.3.2.3.6,1.1.7,1.6.4s1.6,0,2.5.6c1.2,1,1.4,1,.9-.2-.4-.9.1-1.4,1.4-1.4,1.1,0,1.8.3,1.5.7-.2.4.7.7,2.1.7s2.5-.4,2.5-.9.5-.6,1.2-.2c1.7,1.1,7.8,1.1,7.8,0,0-.5.7-.3,1.5.3,1,.8,1.5.9,1.5.1,0-.7.8-.8,2.4-.2,1.6.6,2.8.5,3.5-.2.8-.8,1.1-.8,1.1.1,0,.7.4,1.2,1,1.2.5,0,.7-.8.3-1.8-.5-1.5-.4-1.5.9-.5.8.7,1.8,1,2.1.7s1.2-.2,1.9.2c2.2,1.4,11.9,1.1,11.4-.3-.3-.7.1-1,1-.6.8.3,1.5,1.1,1.5,1.7,0,.7.3.8.8.1.4-.5,1.4-1,2.2-1s1.8.5,2.2,1c.5.6,1.1.5,1.6-.4.6-1,1.1-1,1.6-.2.4.6,1.1.9,1.7.5.5-.3,1.6-.1,2.4.6,1.1.9,1.5.9,1.5,0,0-.6.5-.9,1-.6s1,.1,1-.6c0-.9.4-.9,1.5.1,1.1.9,1.5.9,1.5.1,0-.6.5-.9,1.2-.5,1.4.9,10.8,1.1,10.8.3,0-.3,1.3-.5,3-.3,1.9.2,3-.1,3-.9,0-.9.2-.9.8.1.5.7,1.2,1.2,1.7,1.1.5-.1,1.9-.1,3.2-.1,2.4.1,3.1,2.6,1,3.3s-38.4.1-39.6-.6c-.6-.4-1.1-.3-1.1.2,0,1.6-10.9.9-12.1-.8-.9-1.2-1-1.2-.5.3s.2,1.7-1.4,1.2c-1.2-.4-2-.2-2,.6,0,.9-.3.9-1.5,0-.8-.7-1.9-.9-2.5-.6-.6.3-1.9.2-3-.4-1.4-.8-2.1-.7-2.4.2-.4.9-.8.9-1.6-.3-.7-1.1-1.1-1.1-1.1-.2s-1.2,1.1-3.5.9c-1.9-.2-3.7-.1-3.9.2s-3.6.6-7.5.6c-4.3,0-7.1.4-7.1,1,0,.7-.3.7-.8,0-.4-.5-1.7-1.6-2.9-2.2-1.8-1-2.1-1-1.7.1.4,1-1.5,1.3-9,1.1-5.2-.1-9.9-.5-10.5-.8-.5-.3-1.2-.3-1.5.2-.6.9-5.9.9-7.4-.1-.6-.4-1.4-.3-1.7.2s-2.1.6-3.9.2c-1.8-.4-7.1-.6-11.8-.3-4.6.2-9.2.4-10.2.4s-1.8.8-1.8,1.9c0,1.4,1,2,4,2.5,2.2.4,4.5.4,5,0,.6-.4,1.7-.1,2.5.5.8.7,1.5.8,1.5.2s1.9-.9,4.5-.7c2.5.2,4.5-.1,4.5-.7,0-.5.5-.7,1.1-.3s.8,1.3.6,2c-.3.9,0,1.2.9.8.8-.3,1.4-1,1.4-1.6,0-.7.4-.7,1.3,0,1.2,1,10.1.7,11.8-.3.4-.3.9,0,1.1.7.2.7,1,.5,2.1-.6,1.5-1.5,1.8-1.5,2.3-.1.3.9,1,1.3,1.5,1s.6-1,.3-1.6c-.4-.6.6-.2,2.2.8,1.9,1.3,2.9,1.5,3.2.7.2-.6,1.1-.9,2-.6,1.1.4,1.4.2.9-.6-.4-.6-.2-1.2.3-1.2.6,0,1.1.6,1.1,1.2,0,.7,1.1,1.3,2.5,1.4,1.4.1,2.5-.3,2.5-.9s.8-.4,1.7.4c1.5,1.2,1.6,1.2,1.1-.2-.4-1,0-1.5,1.2-1.5,1,0,1.6.5,1.3,1.3-.3.7,0,1.3.6,1.3s1.1-.4,1.1-.9c0-1.4,3.2-2.3,4.4-1.1,1.4,1.4,2.9,1.3,2-.2-.6-.9-.3-.9.9.1,1.4,1.1,1.8,1,2.8-.5s1.1-1.5.6-.1c-.4,1.2.1,1.6,1.7,1.5,1.2-.1,2.5-.6,2.9-1.2.5-.7.7-.6.8.2,0,1,.5,1,2.1.2,1.6-.9,1.9-.9,1.4.1-.6.9-.2.9,1.4.1,1.8-1,2.1-.9,2.1.7,0,1.2.3,1.4.8.6.4-.7,2.1-1,4-.8s3,0,2.7-.5-.1-1,.4-1,1.3.5,1.6,1,1.1,1,1.6,1,.8-.4.5-.9c-.9-1.5,2.9-.7,4.1.9.7.8,1.2,1,1.3.5,0-1.1,6-1.6,6-.5,0,.4,1.9.4,4.2-.1,2.7-.5,4.5-.4,4.9.2.4.6.8.5,1.1-.3.4-1.1.7-1.1,2.1,0,.9.8,1.7,2.1,1.7,3,0,1.2-.3,1.3-1.1.5-.7-.7-1.9-.8-3.5-.2-1.4.5-2.4.5-2.4,0s-.9-.6-2-.4c-1.1.3-2,1-2,1.7,0,.8-.2.8-.8.1-1.2-1.8-3.9-2.3-5.2-1.1-.9.9-1.4.8-2-.2-.7-1.1-.9-1.1-1.5,0-.5,1.1-.8,1.1-1.2.1-.3-.7-1-1.2-1.6-1.2-.5,0-.7.5-.3,1.2.5.7.3.9-.5.4-.7-.4-1.9-.1-2.8.6-1.4,1.2-1.6,1.1-1.1-.8.4-1.6.2-2-.8-1.6-.8.3-1.4,1.3-1.5,2.2-.1,1.3-.2,1.2-.8-.3s-1-1.6-1.6-.6-1,1-1.7-.1-1-1.1-1.8,0c-.6.9-1.1,1-1.6.2-.4-.6-1.1-1.1-1.7-1.1s-.7.5-.4,1c.8,1.3-.8,1.3-2.2-.1-.8-.8-1.7-.8-3.2,0-1.6.8-2.1.8-2.1,0s-.4-.8-1.5.1c-1.2,1-1.5,1-1.5,0,0-.8-.4-.9-1.2-.3-.7.5-2.4.8-3.8.7-1.4-.1-2.8.3-3.2.9-.5.7-.7.6-.8-.4,0-1.1-1-1.5-3.8-1.5-2.1,0-4.1.5-4.4,1-.4.6-1.3.4-2.2-.4-1.3-1.1-1.6-1-1.6.4s-.3,1.5-1.5.5-1.5-1-1.5.1-.2,1.1-.9-.1c-.7-1.1-1.2-1.2-2.4-.2s-1.6,1-1.9-.1c-.4-1-.9-1.1-2.6,0-1.3.7-2.1.8-2.1.2s-.9-1-2-1-2,.5-2,1.1c0,.8-.5.7-1.6-.2-1.3-1.1-1.7-1.1-2.4,0-.5.8-1,.9-1.4.3-.7-1.1-9.7-.9-11.5.2-.6.4-1.1.2-1.1-.4s-.7-1.1-1.5-1.1-1.5.5-1.5,1,.5,1,1.2,1c.6,0,.9.3.5.7s-1.5,0-2.4-.8c-3.5-3-4.6-3.3-3.3-.9q1.1,2.1-1.1.9c-2.9-1.6-9.1-1.9-10-.5-.5.7-1.2.6-2.2-.3-1.3-1.1-1.6-1-1.6.7,0,1.6,1,2.2,4.7,3,3,.6,5.4.7,6.5,0,1.2-.6,1.8-.6,1.8.1,0,.6.9.7,2.2.2,1.2-.4,8-.7,15-.6,11.5.2,12.6,0,11.5-1.4-1-1.3-.9-1.3.8.1,2.2,1.9,8.5,2.2,8.5.4,0-.8.2-.8.8,0,1,1.5,8.4,1.6,7.6.1-.4-.7-.1-.7.7.1,2.1,1.9,3.2,1.5,2.4-1l-.7-2.2,1.6,2.2c1.8,2.5,4.5,2.9,6.3,1.1.9-.9,1.6-.8,2.9.2,1.4,1.1,1.8,1.1,2.1.1.4-1.1.7-1.1,2,0,1.2,1,1.7,1,2,0,.2-.7.9-.9,1.6-.5,1.8,1.1,6.7,1.2,6.7,0,0-.6.7-.4,1.6.3,1.3,1.1,1.7,1.1,2.4,0,.6-.9,1-1,1.5-.2,1.1,1.8,2.6,1.3,1.9-.6-.4-1.4-.3-1.4.4-.4,1.2,1.7,8.7,2.7,7.7,1.1-.4-.6.5-.4,1.9.6,2.5,1.7,2.6,1.6,2-.1-.5-1.4-.4-1.6.7-.9.8.5,5.9,1,11.4,1.1,11.1.3,13.5.6,15.3,1.7.8.5,1.2.2,1.2-.8,0-1.8,1.6-2.1,2.5-.5.4.7,1.1.7,2.1-.2,1.1-.9,1.7-.9,2.6,0,1.5,1.5,3.1,1.5,2.2,0-.5-.8-.2-1,.9-.5.9.4,1.7.2,1.7-.5,0-.8.4-.8,1.3,0,.7.6,1.6.8,2,.5.3-.3,1.3-.1,2.1.5,1.1.9,1.5.9,1.9-.1.3-.7.6.2.6,2,.1,3.1-.1,3.2-2.7,2.5-1.5-.4-4-.8-5.5-.8s-2.8-.3-2.8-.6-.7-.6-1.5-.6-1.5.4-1.5.9-.9.4-1.9-.2c-2.4-1.3-3.4-1.3-2.6,0,.8,1.2.3,1.3-2.9,0-1.7-.7-2.6-.6-2.6.1,0,.6-.5.7-1.1.4-1.7-1.1-9.9-1.3-9.9-.3,0,.5-.6.6-1.2.1-2-1.2-26.1-1.2-27,.1-.4.6-.7.7-.8.1,0-1.1-15.9-1.4-17.6-.3-.6.4-1.4.4-1.8,0-1.1-1.1-7.6-.9-7.6.2,0,.6-.5.4-1-.5-.9-1.3-1.1-1.3-2,0-.5.8-1,1-1,.4,0-1.4-7.3-1.3-8.2.1-.5.7-.7.6-.8-.1,0-1.5-8-1.6-8-.1,0,.7-.4.6-1-.3-.7-1.2-1.2-1.2-2.1-.3-.7.7-1.9.9-2.8.5-2-.9-4.2-.9-5.8.1-.6.4-1.5.3-1.8-.3-.5-.7-1.1-.7-2.1.1-.8.6-1.4.8-1.4.3s-.9-.9-2-.9-2,.4-2,.8c0,.5-.5.5-1.1.1-1.7-1.1-9.9-1.2-9.9-.2,0,.5-.9.6-2,.3-1.3-.4-2-.2-2,.7,0,.8-.3.9-.8.3-.4-.5-1.9-1.1-3.4-1.3-2.2-.2-2.6.1-2.2,1.6.4,1.7,1.4,1.9,9.4,1.8,5.4-.1,8.9.2,8.9.9s.3.7.8,0c.9-1.2,8.2-1.4,8.2-.2,0,.5.4.6.9.2,1.7-1.1,12.5-1.4,14.3-.4,1.2.7,1.8.6,1.8-.1,0-.6.5-.8,1-.4.6.4,1.8,0,2.7-.7,1.4-1.1,1.6-1.1,1.1.2-.4,1.1.1,1.5,1.7,1.5,1.3,0,2.1-.3,1.8-.8-.7-1.2,1.1-.9,2.4.4.9.9,1.5.8,2.8-.2,1-.8,1.9-1,2.3-.4.8,1.1,4.2,1.5,4.2.5,0-.7,6.1-.6,13.8.2,1.8.2,3.5,0,3.8-.5s1.1-.4,1.9.2c1,.8,1.5.8,2,0s1.1-.8,2.1.1c1.1.9,1.4.9,1.4-.1s.3-1,1.4-.1c1,.8,1.6.9,2.1.1.5-.8,1-.8,2,0s1.5.7,1.8-.2c.4-.9.8-1,1.3-.2,1,1.3,18.3,1.4,18.3.1,0-.5.7-.4,1.5.3,1.1,1,1.8,1,2.9.1,1-.8,1.6-.9,2.1-.1.5.8,1,.8,2,0s1.5-.8,2,0,1.1.8,1.9.1c.7-.6,1.5-.8,1.8-.5.5.5,5.6.8,23,1.4,1.3,0,1.8.9,1.8,3v3l176.7.1c97.2.1,179.7.2,183.2.3l6.5.2.5-101.5h-173.8c-95.6,0-177.9-.3-183-.7l-9.2-.6-.2,3.1M793.3,703.4c-1.4.4-2.9.4-3.2.1s-.6-.1-.6.4c0,.8,2.6.9,10.8.4.7,0,1.2-.5,1.2-1.1.1-1-3.9-1-8.2.2M840.2,719.9c.9-.3,2.5-.1,3.5.4,1.1.6,1.9.7,1.8.2-.4-2.1.2-2.5,1.4-.9,1,1.4,1.8,1.5,3.8.8,1.4-.5,4.5-.7,7-.5,9.1.9,12.5.9,13.8,0,.8-.6,1.2-.5,1.2.1s1.8.9,4.5.6c2.7-.2,4.5,0,4.5.6s.5,1,1,1,1-.8,1-1.7c0-1.3.3-1.4,1.2-.5,1.5,1.5,3.2,1.6,2.3.2-.3-.5-.2-1,.4-1s1.3.5,1.7,1.1,1.4.8,2.2.5,2.4.2,3.4,1.1c2,1.8,2.6.5.7-1.4-.9-.9-.9-1.2,0-1.2.7,0,2.1.9,3.3,2.1l2.1,2.1-.7-2.3c-.7-2.1-.6-2.2.9-1,1.3,1.1,2,1.1,3.1.2,1-.9,1.6-.9,2.1-.1.4.6,1.3.9,2,.6.7-.3,1.8,0,2.4.6.8.8,1.1.7,1.1-.4,0-1.5,4.7-1.8,6.9-.5.6.3,1.3.1,1.7-.5.4-.7,1.3-.5,2.6.6,1,1,2.2,1.4,2.6,1.1.4-.4.1-.7-.5-.7s-1.2-.4-1.2-.8,2-.8,4.5-.8c3.1,0,4.4.4,4.1,1.2-.3.9.1.9,1.9,0,1.3-.7,3.4-1.1,4.7-1s2.8.3,3.4.3.9.9.7,1.9c-.4,1.6-1.6,1.9-7.9,2-5.2.1-7.4-.3-7.4-1.1s-.3-.8-.9.2c-.7,1.1-1.3,1.1-3,.2-1.2-.6-2.6-.9-3.2-.5-1.5.9-10.9,1.2-10.3.3.3-.4,0-.8-.6-.8s-1.1.5-1.1,1.1-.5.8-1.1.4c-.6-.4-1.5-.1-2,.7s-.9.9-.9.3c0-.7-2.4-1.1-6.8-1-3.7.1-7.3-.3-8-.8-.8-.6-1.2-.6-1.2,0,0,.5-4.1.8-9.7.7-6.8-.2-9.9.1-10.5.9-.6,1-.8.9-.8,0,0-.7-.9-1.2-2-1.2s-2,.6-2,1.2c0,.8-.3.8-1-.2-.9-1.3-1.1-1.3-2,0-.6.9-1,1-1,.3,0-.8-1.9-1.1-6-.9-3.5.2-6-.1-6-.7s-.5-.7-1.2-.1c-1.9,1.4-14,1-14.5-.5-.2-.7.5-1.5,1.7-1.8s2.1-1,2.1-1.6.6-.5,1.5.2c.4.7,1.8,1,2.7.7M835.6,721.3c0,.5.5,1,1,1s1-.5,1-1-.5-1-1-1-1,.4-1,1M841.1,721.3c-.3.5-.1,1,.4,1,.6,0,1.1-.5,1.1-1s-.2-1-.4-1c-.3,0-.8.4-1.1,1M852.6,721.3c0,.5.5,1,1.1,1s.8-.5.4-1c-.3-.5-.8-1-1.1-1-.2,0-.4.4-.4,1M915.6,721.3c0,.5.5,1,1.1,1s.8-.5.4-1c-.3-.5-.8-1-1.1-1-.2,0-.4.4-.4,1M904.6,722.3c0,.6.5.8,1,.4.5-.3,1-.8,1-1.1,0-.2-.5-.4-1-.4s-1,.5-1,1.1M821.6,728.3c0,.5-.5,1-1,1s-1-.5-1-1,.5-1,1-1,1,.4,1,1M804.1,731.3c.3.5.8,1,1.1,1s.4-.5.4-1-.5-1-1.1-1c-.5,0-.7.4-.4,1M789.1,762.3c.3.5,1.1,1,1.6,1s.7-.5.4-1-1.1-1-1.6-1-.7.4-.4,1M844.9,764c-.7.3-1,.9-.7,1.4s1.6-.2,2.9-1.4c2-2,2.9-2.3,6.9-1.7,2.8.4,5,.3,5.6-.3.7-.7,1-.6,1,.3s.8,1.1,2.4.7c1.4-.3,2.7-.1,3.1.5.5.8.9.7,1.5-.2.7-1.1,1.1-1,2.4,0,1.3,1.1,1.5,1.1,1.1-.1-.4-1,.2-1.4,2-1.3,1.4.1,2.7.3,3,.6s2.4.4,4.7.3c2.6-.1,3.7.1,2.8.6-2.2,1.4-.4,2.1,2.5,1,1.5-.6,3.2-.7,3.8-.4s1.5,0,2-.7c.7-1.1,1.1-1.1,1.5-.1.8,1.9,2.7,1.5,1.9-.4-.5-1.3-.4-1.4.8-.5,1,.9,1.6.9,2.1.1.5-.8,1.3-.6,2.6.6,1.4,1.3,2.2,1.4,3.3.6,1.4-1.2,6.8-1.2,6.1,0-.9,1.5,2.8,1.8,4.8.4,1.5-1.1,2.4-1.2,3.4-.4.7.6,1.3.7,1.3.2s.9-.9,2-.9c1.4,0,1.8.5,1.5,1.5-.4,1.1,0,.9,1.5-.4q2-1.8,2.2.1c.1,1.7.2,1.7.6.2.5-2.1,1.8-2.2,3.5-.4,1,1.1,1.5,1.1,2.5.1s3.5-1.2,8.9-.6c1.1.1,1.8,4.1.7,4.2-4.2.5-5.2.5-5.2-.2,0-.4-1.6-.6-3.5-.3-2.1.3-3.5,0-3.5-.6s-.5-.7-1.2-.3c-2.3,1.4-10.2,1.1-12-.4-1-.8-1.8-1-1.8-.4s.6,1.3,1.2,1.5c.7.2-1.3.4-4.5.4s-5.8-.4-5.8-1,.7-.7,1.6-.3c1.4.5,1.4.4.4-.9-1.1-1.4-1.5-1.3-2.9.4-1.2,1.4-2.1,1.7-3.3,1-1.1-.6-1.9-.5-2.3.1-.4.7-1.2.6-2.3-.2-.9-.7-1.3-.8-.9-.2.8,1.4-2.5,1.3-3.5-.1-.5-.6-.7-.6-.8.1,0,1.5-3.8,2.5-4.6,1.2-.3-.5-2.4-.7-4.7-.4-2.5.3-4.7,0-5.6-.7-1.2-1-1.4-.9-.9.5.5,1.3.2,1.6-1.1,1.1-.9-.3-2.3-1-2.9-1.6-.8-.7-1.2-.6-1.2.3s-.4.9-1.7-.1c-.9-.8-1.4-.9-1-.3.4.7-.4,1.1-2.3,1.2-2,.1-2.8-.3-2.3-1.1.4-.7-.2-.4-1.4.6-1.2,1.1-2.3,1.4-2.7.8-.3-.5,0-1.2.7-1.5.8-.3.6-.5-.5-.6-1,0-1.8.6-1.8,1.4s-.4,1.5-.9,1.5-1.6-.7-2.4-1.5c-1.9-1.9-3-1.9-2.3-.1.5,1.3-.5,1.4-5.3.6-.3,0,.2-.5,1-1.1,1-.7,1.1-1,.2-1-.7,0-1.5.6-1.8,1.4-.5,1.4-5.1,1.6-7.2.2-.7-.4-1.2-.2-1.2.6,0,1-.3.9-1-.2-.6-.9-1.3-1.1-1.7-.5-1.2,1.7-3.6,1.7-2.9.1.3-.8.1-1.6-.6-1.8-1.3-.4-.2-2.8,1.4-2.8.5,0,.7.5.4,1s-.2,1,.4,1,1.3-.5,1.6-1,1.1-1,1.6-1,.7.5.4,1,.1,1,.9,1,1.6-.4,1.6-1c0-.5.7-.7,1.5-.4.9.3,1.5,0,1.5-.7,0-1.1.2-1.1,1.2,0,.7,1,.7,1.3-.3,1.7M804.3,764c-.8,1.3,2.8,2.7,4.3,1.8,1.9-1.2,1.1-2.6-.9-1.5-1.4.7-2,.7-2.3-.2-.3-.9-.6-.9-1.1-.1M825.1,764.3c.3.5.8,1,1.1,1s.4-.5.4-1-.5-1-1.1-1c-.5,0-.7.4-.4,1M874.1,764.3c.3.5.8,1,1.1,1s.4-.5.4-1-.5-1-1.1-1c-.5,0-.7.4-.4,1M879.1,764.3c-.3.5-.1,1,.4,1,.6,0,1.1-.5,1.1-1s-.2-1-.4-1c-.3,0-.8.4-1.1,1M801.1,765.3c.3.5.8,1,1.1,1s.4-.5.4-1-.5-1-1.1-1c-.5,0-.7.4-.4,1M887.6,765.3c0,.5.5,1,1,1s1-.5,1-1-.5-1-1-1-1,.4-1,1M796.1,778.3c.3.5.1,1-.4,1-.6,0-1.1-.5-1.1-1s.2-1,.4-1c.3,0,.8.4,1.1,1M919.2,781c1.1,1.4,1.3,1.5,1.4.2,0-.9,1.1-1.6,2.5-1.6,1.4-.1,2.3.2,2,.6-.7,1.2,2.9.7,3.7-.5.5-.6,1.1-.4,1.8.5.6,1,1.3,1.1,1.8.5.8-1.2,8.2-1.4,8.2-.2,0,.4.7.5,1.5.1,1.1-.4,1.5.1,1.5,1.9,0,2.5-1.2,2.9-3.7,1.4-.6-.4-1.4-.2-1.8.5-.5,1-.7,1-1.2,0-.4-.9-1.1-1-2.4-.3s-2,.6-2.4-.3c-.5-1-.7-1-1.2,0-.4.9-1.2.8-3-.4-2.2-1.5-2.4-1.5-2.4,0,0,.9-.5,1.6-1,1.6s-1-.7-1-1.6-.5-1.3-1-.9c-.6.3-.8,1-.5,1.4s-.6.8-2,.8-2.2-.4-2-.8c.3-.4,0-1.1-.5-1.4-1.1-.7-1.4-3.5-.4-3.5.5.3,1.4,1.1,2.1,2M874.1,785.3c.3.5.1,1-.4,1-.6,0-1.1-.5-1.1-1s.2-1,.4-1c.3,0,.8.4,1.1,1M798.1,787.3c.3.5.1,1-.4,1-.6,0-1.1-.5-1.1-1s.2-1,.4-1c.3,0,.8.4,1.1,1M790.7,800c.8,1.2,1.6,2,1.8,1.8s1.1.1,1.8.7c1.1.9,1.2.8.7-.7-.5-1.4-.4-1.6.7-.9,1.9,1.2,10.9,1.3,10.9.1,0-.5.7-.4,1.5.3,1.3,1.1,1.4,1,.9-.3-.6-1.6-4.4-2-4.4-.4,0,.5-.6.4-1.4-.3-1.1-.9-1.5-.9-1.9.1s-.8,1-1.6-.2c-.8-1.1-1.1-1.1-1.1-.2,0,1-.5,1-2,.2-1.1-.6-2.5-.8-3-.4-.6.3-1.8,0-2.6-.7-1.6-1.2-1.6-1.1-.3.9M874.8,800.3c0,1.4.2,1.9.5,1.2s.3-1.8,0-2.5-.5-.1-.5,1.3M882.7,799.9c0,1.2.3,1.4.6.6.3-.7.3-1.6-.1-1.9-.3-.4-.6.2-.5,1.3M895.6,799.3c0,.6-.8.8-2,.5-1.1-.4-2-.2-2,.4s.4,1.1.9,1.1,1.7.3,2.7.7c1.2.5,1.5.3,1-.5-.4-.6-.3-1.2.3-1.2s1.3.5,1.6,1,1.1,1,1.6,1c1.4,0,.1-1.8-2.2-3-1.3-.8-1.9-.8-1.9,0M916.6,799.1c0,.9-.7,1.1-2,.7-1.3-.4-2-.2-2,.7,0,.7.9,1.4,2,1.4s2-.4,2-.9.7-.3,1.5.3c1.2,1,1.5,1,1.5,0,0-.9.4-.9,1.8.1q1.6,1.2.4-.4c-.8-1-1.8-1.5-2.4-1.1-.5.3-1.4,0-1.9-.8-.7-1-.9-1.1-.9,0M810.6,800.3c0,.5.5,1,1.1,1s.8-.5.4-1c-.3-.5-.8-1-1.1-1-.2,0-.4.4-.4,1M823.6,800.3c0,.5.5,1,1.1,1s.8-.5.4-1c-.3-.5-.8-1-1.1-1-.2,0-.4.4-.4,1M836.1,800.3c.3.5.8,1,1.1,1s.4-.5.4-1-.5-1-1.1-1c-.5,0-.7.4-.4,1M841.6,800.3c0,.5.7,1,1.5,1s1.5-.2,1.5-.4-.7-.7-1.5-1-1.5-.1-1.5.4M846,800c1.1,1.1,4.8,1.4,4.1.3-.3-.6-1.6-1-2.7-1-1.2,0-1.8.3-1.4.7M851.6,800.3c0,.5.5,1,1.1,1s.8-.5.4-1c-.3-.5-.8-1-1.1-1-.2,0-.4.4-.4,1M865.6,800.8c0,.6.7,1.1,1.5,1.1s1.6-.5,1.9-1.1c.2-.6-.4-1.1-1.5-1.1-1,0-1.9.5-1.9,1.1M871.1,800.2c-.3.5-.1,1.2.4,1.6.6.3,1-.1,1-.9.1-1.8-.5-2.1-1.4-.7M879.6,800.1c0,.5.5,1.3,1,1.6s1,.2,1-.4c0-.5-.5-1.3-1-1.6-.5-.3-1-.1-1,.4M901.7,800.7c1.2,1.2,9.9,1.5,9.9.4,0-.9-.7-1-7-1.2-2.5-.1-3.5.2-2.9.8M924.1,800.3c-.3.5-.5,1-.3,1.1,3.1.8,5.8.8,5.8-.1,0-.6.5-.8,1.1-.4,1.8,1.1,10,1.4,9.4.4-.3-.5-.1-.9.5-.9s1.1.5,1.1,1.1.5.8,1.1.4c1.8-1.1.2-1.8-4.6-2-2.5-.1-4.5.3-4.5.8s-.7.4-1.5-.3c-1.1-1-1.8-1-2.9-.1-1,.8-1.6.8-2.1.1-.9-1.4-2.3-1.4-3.1-.1"/>
      <path id="CompoundPath_11" data-name="CompoundPath_1" class="st0" d="M845.8,386.5v51.5h68l1.4,206.5h41.4l-1.5-206.5,282.8,3.8v-53.7l-392.1-1.6ZM1116.8,541.7h41.4l38.4-66.1v168.6h41.4v-242.5l-37.6.8-62.8,87-61.1-86.4-39.3,4.7v236.3h41.4v-168.5l38.2,66.1Z"/>
      <text id="PointText_1" class="st1" transform="translate(992.53 775.95) scale(1.46 1)"><tspan x="0" y="0">FILMS</tspan></text>
    </g>
  </g>
</svg>